<svg id="SvgjsSvg1034" width="288" height="288" xmlns="http://www.w3.org/2000/svg" version="1.1" xmlns:xlink="http://www.w3.org/1999/xlink" xmlns:svgjs="http://svgjs.com/svgjs"><defs id="SvgjsDefs1035"></defs><g id="SvgjsG1036" transform="matrix(1,0,0,1,0,0)"><svg xmlns="http://www.w3.org/2000/svg" version="1.0" viewBox="0 0 159.28 396.41" width="288" height="288"><g transform="translate(-51.28 -20.04) scale(.25991)" fill="#d2c8c8" class="color000 svgShape"><path stroke="#383131" stroke-linecap="round" stroke-linejoin="round" stroke-width="8" d="m201.3 1395.2c19.32 168.7 603.81 152.3 604.81 0v94.1c-12.45 130.6-546.21 159.3-604.81 0v-94.1z" fill="#d2c8c8" class="color000 svgShape colorStroke2b2b2b svgStroke"></path><path stroke="#383131" stroke-linecap="round" stroke-linejoin="round" stroke-width="8" d="m310.24 1180c54.24 83.3 339.37 83.6 376.47 0-4.01 118.2 82.57 92.6 118.52 207.4 10.69 159.9-601.71 182-603.05-1.8 11.03-108.6 131.41-73.1 108.06-205.6z" fill="#d2c8c8" class="color000 svgShape colorStroke2b2b2b svgStroke"></path><path stroke="#383131" stroke-linecap="round" stroke-linejoin="round" stroke-width="8" d="m697.17 1189.1a189.11 71.024 0 1 1 -378.22 0 189.11 71.024 0 1 1 378.22 0z" transform="translate(-7.843 -18.301)" fill="#d2c8c8" class="color000 svgShape colorStroke2b2b2b svgStroke"></path><path stroke="#383131" stroke-linecap="round" stroke-linejoin="round" stroke-width="8" d="m404.36 762.91c36.27 12.86 143.53 13.27 188.23 0-14.78 146.86 11.55 276.39 52.29 403.99-31.89 39.7-239.76 60.9-291.07 0 41.07-134.8 57.21-264.6 50.55-403.99z" fill="#d2c8c8" class="color000 svgShape colorStroke2b2b2b svgStroke"></path><path stroke="#383131" stroke-linecap="round" stroke-linejoin="round" stroke-width="8" d="m606.53 629.63a212.2 87.581 0 1 1 -424.4 0 212.2 87.581 0 1 1 424.4 0z" transform="translate(103.45 55.231)" fill="#d2c8c8" class="color000 svgShape colorStroke2b2b2b svgStroke"></path><path stroke="#383131" stroke-linecap="round" stroke-linejoin="round" stroke-width="6.766" d="m557.73 605.23a115.03 73.75 0 1 1 -230.06 0 115.03 73.75 0 1 1 230.06 0z" transform="matrix(1.4037 0 0 .99601 -123.65 36.4)" fill="#d2c8c8" class="color000 svgShape colorStroke2b2b2b svgStroke"></path><path stroke="#383131" stroke-linecap="round" stroke-linejoin="round" stroke-width="8" d="m380.83 542.92c17.28 27.49 212.21 43.73 235.29 0v84.53c-30.38 28.97-188.65 43.63-235.29 0v-84.53z" fill="#d2c8c8" class="color000 svgShape colorStroke2b2b2b svgStroke"></path><path stroke="#383131" stroke-linecap="round" stroke-linejoin="round" stroke-width="8" d="m644.44 560.78a139.43 55.338 0 1 1 -278.86 0 139.43 55.338 0 1 1 278.86 0z" transform="translate(-7.843 -5.229)" fill="#d2c8c8" class="color000 svgShape colorStroke2b2b2b svgStroke"></path><path stroke="#383131" stroke-linecap="round" stroke-linejoin="round" stroke-width="6" d="m303.7 316.77c6.22 93.7 393.35 86.8 390.85-0.43-15.83 80.03-57.92 157.94-78.87 229.63-20.83 29.67-197.29 35.25-235.29-4.36-28.61-77.99-94.17-197.43-76.69-224.84z" fill="#d2c8c8" class="color000 svgShape colorStroke2b2b2b svgStroke"></path><path stroke="#383131" stroke-linecap="round" stroke-linejoin="round" stroke-width="8" d="m697.17 286.93a195.86 65.141 0 1 1 -391.72 0 195.86 65.141 0 1 1 391.72 0z" transform="translate(-1.307 32.423)" fill="#d2c8c8" class="color000 svgShape colorStroke2b2b2b svgStroke"></path><path stroke="#383131" stroke-linecap="round" stroke-linejoin="round" stroke-width="6" d="m591.28 291.28a92.592 33.769 0 1 1 -185.18 0 92.592 33.769 0 1 1 185.18 0z" transform="translate(-1 1)" fill="#d2c8c8" class="color000 svgShape colorStroke2b2b2b svgStroke"></path><path stroke="#383131" stroke-linecap="round" stroke-linejoin="round" stroke-width="6" d="m404.36 291.07c4.85 44.21 179.46 48.14 185.62 0l-5.23 26.58c-11.88 22.85-149.51 29.48-172.99-0.44l-7.4-26.14z" fill="#d2c8c8" class="color000 svgShape colorStroke2b2b2b svgStroke"></path><path fill="#d22626" fill-opacity=".387" stroke="#646464" stroke-linecap="round" stroke-linejoin="round" stroke-width="2" d="m395.39 139.54h68.95l-7.35-38.67 37.09-22.764 39.71 22.764-10.41 38.67h60.68l-0.11 85.95h-44.99l11.55 59.15h-115.47l13.29-59.15h-52.18l-0.76-85.95z" class="colorbebebe svgShape colorStroke646464 svgStroke"></path><path stroke="#646464" stroke-linecap="round" stroke-linejoin="round" stroke-width="2" d="m523.31 139.22l60.57 0.43 14.05 16.99-60.68-0.32-13.94-17.1z" fill="#d2c8c8" class="color000 svgShape colorStroke646464 svgStroke"></path><path fill="#4c3737" stroke="#646464" stroke-linecap="round" stroke-linejoin="round" stroke-width="2" d="m396.95 139.87l12.2 15.69 0.44 86.71-13.08-16.56 0.44-85.84z" class="color2b2b2b svgShape colorStroke646464 svgStroke"></path><path fill="#4c3737" stroke="#646464" stroke-linecap="round" stroke-linejoin="round" stroke-width="2" d="M396.4 139.65l67.43.11 14.27 16.56-68.08-.33-13.62-16.34zM448.36 225.49l13.73 16.78-13.29 59.25-13.51-17.64 13.07-58.39z" class="color2b2b2b svgShape colorStroke646464 svgStroke"></path><path fill="#4c3737" stroke="#646464" stroke-linecap="round" stroke-linejoin="round" stroke-width="2" d="m457.19 101.52l13.72 16.45 7.08 38.46-13.72-16.56-7.08-38.35z" class="color2b2b2b svgShape colorStroke646464 svgStroke"></path><path stroke="#646464" stroke-linecap="round" stroke-linejoin="round" stroke-width="2" d="m456.86 100.98l37.26-22.876 13.4 16.885-36.5 22.551-14.16-16.56z" fill="#d2c8c8" class="color000 svgShape colorStroke646464 svgStroke"></path><path stroke="#646464" stroke-linecap="round" stroke-linejoin="round" stroke-width="2" d="m494.33 78.213l39.33 22.437 13.51 16.78-39.55-22.223-13.29-16.994z" fill="#d2c8c8" class="color000 svgShape colorStroke646464 svgStroke"></path><path stroke="#464646" stroke-linecap="round" stroke-linejoin="round" stroke-width="4" d="m409.15 156.43h68.95l-7.35-38.67 37.09-22.771 39.71 22.771-10.41 38.67h60.68l-0.11 85.94h-44.99l11.55 59.15h-115.47l13.29-59.15h-52.18l-0.76-85.94z" fill="#d2c8c8" class="color000 svgShape colorStroke464646 svgStroke"></path></g></svg></g></svg>